# xmcd CD database file
#
# Track frame offsets:
#	150
#	19386
#	46045
#	67596
#	90243
#	113149
#	136758
#	158527
#	175000
#	194660
#	217181
#	234662
#	253215
#	274526
#	303926
#	325168
#
# Disc length: 4633 seconds
#
# Revision: 0
# Processed by: cddbd v1.5.2PL0 Copyright (c) Steve Scherf et al.
# Submitted via: CD2WAV32(JP) R3.22
#
DISCID=d0121710
DTITLE=Various Artist - ロマンティック・クリスマス
DYEAR=2009
DGENRE=Alternative
TTITLE0=クリスマス・イブ/JUJU
TTITLE1=遠い街のどこかで…/中山美穂
TTITLE2=Pearl-White Eve/松田聖子
TTITLE3=白のワルツ/今井美樹
TTITLE4=クリスマスの夜～2003 Version～/ 岡村孝子
TTITLE5=一緒に…/MAX
TTITLE6=恋バス/矢井田瞳＆恋バスBAND with 小田和正
TTITLE7=ジン ジン ジングルベル/森高千里
TTITLE8=angel song －イヴの鐘－/the brilliant green
TTITLE9=パーティーをぬけだそう!/忌野清志郎と篠原涼子
TTITLE10=DING DONG/PRINCESS PRINCESS
TTITLE11=スノーフレイクの街角/杏里
TTITLE12=LAST CHRISTMAS SONG/浜田麻里
TTITLE13=Xmas present/古内東子
TTITLE14=サイレント・イヴ/辛島美登里
TTITLE15=ラスト・クリスマス (Last Christmas)/かの香織
EXTD=
EXTT0=
EXTT1=
EXTT2=
EXTT3=
EXTT4=
EXTT5=
EXTT6=
EXTT7=
EXTT8=
EXTT9=
EXTT10=
EXTT11=
EXTT12=
EXTT13=
EXTT14=
EXTT15=
PLAYORDER=
